<svg width="322" height="126" viewBox="0 0 322 126" fill="none" xmlns="http://www.w3.org/2000/svg">
<rect width="316" height="126" transform="translate(6)" fill="white"/>
<line x1="77.5" y1="15" x2="77.5" y2="93" stroke="#374B73" stroke-width="3"/>
<path d="M104.632 39.2H110.14V63H104.632V39.2ZM93.8202 63H88.3122V39.2H93.8202V63ZM105.04 53.242H93.4122V48.584H105.04V53.242ZM126.617 63V59.43L126.277 58.648V52.256C126.277 51.1227 125.926 50.2387 125.223 49.604C124.543 48.9693 123.489 48.652 122.061 48.652C121.087 48.652 120.123 48.8107 119.171 49.128C118.242 49.4227 117.449 49.8307 116.791 50.352L114.887 46.646C115.885 45.9433 117.086 45.3993 118.491 45.014C119.897 44.6287 121.325 44.436 122.775 44.436C125.563 44.436 127.728 45.0933 129.269 46.408C130.811 47.7227 131.581 49.774 131.581 52.562V63H126.617ZM121.041 63.272C119.613 63.272 118.389 63.034 117.369 62.558C116.349 62.0593 115.567 61.3907 115.023 60.552C114.479 59.7133 114.207 58.7727 114.207 57.73C114.207 56.642 114.468 55.69 114.989 54.874C115.533 54.058 116.383 53.4233 117.539 52.97C118.695 52.494 120.203 52.256 122.061 52.256H126.923V55.35H122.639C121.393 55.35 120.531 55.554 120.055 55.962C119.602 56.37 119.375 56.88 119.375 57.492C119.375 58.172 119.636 58.716 120.157 59.124C120.701 59.5093 121.438 59.702 122.367 59.702C123.251 59.702 124.045 59.498 124.747 59.09C125.45 58.6593 125.96 58.036 126.277 57.22L127.093 59.668C126.708 60.8467 126.005 61.742 124.985 62.354C123.965 62.966 122.651 63.272 121.041 63.272ZM147.5 44.436C148.95 44.436 150.242 44.7307 151.376 45.32C152.532 45.8867 153.438 46.7707 154.096 47.972C154.753 49.1507 155.082 50.6693 155.082 52.528V63H149.778V53.344C149.778 51.8707 149.449 50.7827 148.792 50.08C148.157 49.3773 147.25 49.026 146.072 49.026C145.233 49.026 144.474 49.2073 143.794 49.57C143.136 49.91 142.615 50.4427 142.23 51.168C141.867 51.8933 141.686 52.8227 141.686 53.956V63H136.382V44.708H141.448V49.774L140.496 48.244C141.153 47.02 142.094 46.0793 143.318 45.422C144.542 44.7647 145.936 44.436 147.5 44.436ZM167.876 63.272C166.154 63.272 164.601 62.8867 163.218 62.116C161.836 61.3227 160.736 60.2233 159.92 58.818C159.127 57.4127 158.73 55.758 158.73 53.854C158.73 51.9273 159.127 50.2613 159.92 48.856C160.736 47.4507 161.836 46.3627 163.218 45.592C164.601 44.8213 166.154 44.436 167.876 44.436C169.418 44.436 170.766 44.776 171.922 45.456C173.078 46.136 173.974 47.1673 174.608 48.55C175.243 49.9327 175.56 51.7007 175.56 53.854C175.56 55.9847 175.254 57.7527 174.642 59.158C174.03 60.5407 173.146 61.572 171.99 62.252C170.857 62.932 169.486 63.272 167.876 63.272ZM168.794 58.92C169.656 58.92 170.438 58.716 171.14 58.308C171.843 57.9 172.398 57.322 172.806 56.574C173.237 55.8033 173.452 54.8967 173.452 53.854C173.452 52.7887 173.237 51.882 172.806 51.134C172.398 50.386 171.843 49.808 171.14 49.4C170.438 48.992 169.656 48.788 168.794 48.788C167.91 48.788 167.117 48.992 166.414 49.4C165.712 49.808 165.145 50.386 164.714 51.134C164.306 51.882 164.102 52.7887 164.102 53.854C164.102 54.8967 164.306 55.8033 164.714 56.574C165.145 57.322 165.712 57.9 166.414 58.308C167.117 58.716 167.91 58.92 168.794 58.92ZM173.588 63V59.26L173.69 53.82L173.35 48.414V37.772H178.654V63H173.588ZM193.566 63V39.2H198.122L208.254 55.996H205.84L215.802 39.2H220.324L220.392 63H215.224L215.19 47.122H216.142L208.186 60.484H205.704L197.578 47.122H198.734V63H193.566ZM236.885 63V59.43L236.545 58.648V52.256C236.545 51.1227 236.193 50.2387 235.491 49.604C234.811 48.9693 233.757 48.652 232.329 48.652C231.354 48.652 230.391 48.8107 229.439 49.128C228.509 49.4227 227.716 49.8307 227.059 50.352L225.155 46.646C226.152 45.9433 227.353 45.3993 228.759 45.014C230.164 44.6287 231.592 44.436 233.043 44.436C235.831 44.436 237.995 45.0933 239.537 46.408C241.078 47.7227 241.849 49.774 241.849 52.562V63H236.885ZM231.309 63.272C229.881 63.272 228.657 63.034 227.637 62.558C226.617 62.0593 225.835 61.3907 225.291 60.552C224.747 59.7133 224.475 58.7727 224.475 57.73C224.475 56.642 224.735 55.69 225.257 54.874C225.801 54.058 226.651 53.4233 227.807 52.97C228.963 52.494 230.47 52.256 232.329 52.256H237.191V55.35H232.907C231.66 55.35 230.799 55.554 230.323 55.962C229.869 56.37 229.643 56.88 229.643 57.492C229.643 58.172 229.903 58.716 230.425 59.124C230.969 59.5093 231.705 59.702 232.635 59.702C233.519 59.702 234.312 59.498 235.015 59.09C235.717 58.6593 236.227 58.036 236.545 57.22L237.361 59.668C236.975 60.8467 236.273 61.742 235.253 62.354C234.233 62.966 232.918 63.272 231.309 63.272ZM246.649 63V44.708H251.715V49.876L251.001 48.38C251.545 47.088 252.418 46.1133 253.619 45.456C254.821 44.776 256.283 44.436 258.005 44.436V49.332C257.779 49.3093 257.575 49.298 257.393 49.298C257.212 49.2753 257.019 49.264 256.815 49.264C255.365 49.264 254.186 49.6833 253.279 50.522C252.395 51.338 251.953 52.6187 251.953 54.364V63H246.649ZM265.578 59.26L265.714 52.8L274.248 44.708H280.572L272.378 53.038L269.624 55.282L265.578 59.26ZM261.192 63V37.772H266.496V63H261.192ZM274.826 63L268.638 55.316L271.97 51.202L281.252 63H274.826ZM291.952 63.272C289.866 63.272 288.03 62.864 286.444 62.048C284.88 61.232 283.667 60.1213 282.806 58.716C281.944 57.288 281.514 55.6673 281.514 53.854C281.514 52.018 281.933 50.3973 282.772 48.992C283.633 47.564 284.8 46.4533 286.274 45.66C287.747 44.844 289.413 44.436 291.272 44.436C293.062 44.436 294.672 44.8213 296.1 45.592C297.55 46.34 298.695 47.428 299.534 48.856C300.372 50.2613 300.792 51.95 300.792 53.922C300.792 54.126 300.78 54.364 300.758 54.636C300.735 54.8853 300.712 55.1233 300.69 55.35H285.832V52.256H297.902L295.862 53.174C295.862 52.222 295.669 51.3947 295.284 50.692C294.898 49.9893 294.366 49.4453 293.686 49.06C293.006 48.652 292.212 48.448 291.306 48.448C290.399 48.448 289.594 48.652 288.892 49.06C288.212 49.4453 287.679 50.0007 287.294 50.726C286.908 51.4287 286.716 52.2673 286.716 53.242V54.058C286.716 55.0553 286.931 55.9393 287.362 56.71C287.815 57.458 288.438 58.036 289.232 58.444C290.048 58.8293 291 59.022 292.088 59.022C293.062 59.022 293.912 58.8747 294.638 58.58C295.386 58.2853 296.066 57.8433 296.678 57.254L299.5 60.314C298.661 61.266 297.607 62.0027 296.338 62.524C295.068 63.0227 293.606 63.272 291.952 63.272ZM311.803 63.272C309.65 63.272 307.972 62.728 306.771 61.64C305.57 60.5293 304.969 58.886 304.969 56.71V40.662H310.273V56.642C310.273 57.4127 310.477 58.0133 310.885 58.444C311.293 58.852 311.848 59.056 312.551 59.056C313.39 59.056 314.104 58.8293 314.693 58.376L316.121 62.116C315.577 62.5013 314.92 62.796 314.149 63C313.401 63.1813 312.619 63.272 311.803 63.272ZM302.147 49.196V45.116H314.829V49.196H302.147Z" fill="#374B73"/>
<path d="M89.9386 93V81.8H91.6506L96.5466 89.976H95.6506L100.467 81.8H102.179L102.195 93H100.227L100.211 84.888H100.627L96.5306 91.72H95.6026L91.4426 84.888H91.9226V93H89.9386ZM110.292 93V91.272L110.18 90.904V87.88C110.18 87.2933 110.004 86.84 109.652 86.52C109.3 86.1893 108.766 86.024 108.052 86.024C107.572 86.024 107.097 86.0987 106.628 86.248C106.169 86.3973 105.78 86.6053 105.46 86.872L104.676 85.416C105.134 85.064 105.678 84.8027 106.308 84.632C106.948 84.4507 107.609 84.36 108.292 84.36C109.529 84.36 110.484 84.6587 111.156 85.256C111.838 85.8427 112.18 86.7547 112.18 87.992V93H110.292ZM107.604 93.112C106.964 93.112 106.404 93.0053 105.924 92.792C105.444 92.568 105.07 92.264 104.804 91.88C104.548 91.4853 104.42 91.0427 104.42 90.552C104.42 90.072 104.532 89.64 104.756 89.256C104.99 88.872 105.369 88.568 105.892 88.344C106.414 88.12 107.108 88.008 107.972 88.008H110.452V89.336H108.116C107.433 89.336 106.974 89.448 106.74 89.672C106.505 89.8853 106.388 90.152 106.388 90.472C106.388 90.8347 106.532 91.1227 106.82 91.336C107.108 91.5493 107.508 91.656 108.02 91.656C108.51 91.656 108.948 91.544 109.332 91.32C109.726 91.096 110.009 90.7653 110.18 90.328L110.516 91.528C110.324 92.0293 109.977 92.4187 109.476 92.696C108.985 92.9733 108.361 93.112 107.604 93.112ZM114.747 93V84.456H116.651V86.808L116.427 86.12C116.683 85.544 117.083 85.1067 117.627 84.808C118.181 84.5093 118.869 84.36 119.691 84.36V86.264C119.605 86.2427 119.525 86.232 119.451 86.232C119.376 86.2213 119.301 86.216 119.227 86.216C118.469 86.216 117.867 86.44 117.419 86.888C116.971 87.3253 116.747 87.9813 116.747 88.856V93H114.747ZM123.019 91.096L123.067 88.584L127.531 84.456H129.931L126.139 88.264L125.083 89.144L123.019 91.096ZM121.387 93V81.128H123.387V93H121.387ZM127.835 93L124.715 89.144L125.979 87.544L130.267 93H127.835ZM135.231 93.112C134.282 93.112 133.45 92.9253 132.735 92.552C132.031 92.168 131.482 91.6453 131.087 90.984C130.703 90.3227 130.511 89.5707 130.511 88.728C130.511 87.8747 130.698 87.1227 131.071 86.472C131.455 85.8107 131.978 85.2933 132.639 84.92C133.311 84.5467 134.074 84.36 134.927 84.36C135.759 84.36 136.501 84.5413 137.151 84.904C137.802 85.2667 138.314 85.7787 138.687 86.44C139.061 87.1013 139.247 87.88 139.247 88.776C139.247 88.8613 139.242 88.9573 139.231 89.064C139.231 89.1707 139.226 89.272 139.215 89.368H132.095V88.04H138.159L137.375 88.456C137.386 87.9653 137.285 87.5333 137.071 87.16C136.858 86.7867 136.565 86.4933 136.191 86.28C135.829 86.0667 135.407 85.96 134.927 85.96C134.437 85.96 134.005 86.0667 133.631 86.28C133.269 86.4933 132.981 86.792 132.767 87.176C132.565 87.5493 132.463 87.992 132.463 88.504V88.824C132.463 89.336 132.581 89.7893 132.815 90.184C133.05 90.5787 133.381 90.8827 133.807 91.096C134.234 91.3093 134.725 91.416 135.279 91.416C135.759 91.416 136.191 91.3413 136.575 91.192C136.959 91.0427 137.301 90.808 137.599 90.488L138.671 91.72C138.287 92.168 137.802 92.5147 137.215 92.76C136.639 92.9947 135.978 93.112 135.231 93.112ZM144.384 93.112C143.446 93.112 142.72 92.872 142.208 92.392C141.696 91.9013 141.44 91.1813 141.44 90.232V82.568H143.44V90.184C143.44 90.5893 143.542 90.904 143.744 91.128C143.958 91.352 144.251 91.464 144.624 91.464C145.072 91.464 145.446 91.3467 145.744 91.112L146.304 92.536C146.07 92.728 145.782 92.872 145.44 92.968C145.099 93.064 144.747 93.112 144.384 93.112ZM140.032 86.12V84.52H145.728V86.12H140.032ZM152.372 93V84.456H154.372V93H152.372ZM153.38 83.048C153.006 83.048 152.697 82.9307 152.452 82.696C152.217 82.4613 152.1 82.1787 152.1 81.848C152.1 81.5067 152.217 81.224 152.452 81C152.697 80.7653 153.006 80.648 153.38 80.648C153.753 80.648 154.057 80.76 154.292 80.984C154.537 81.1973 154.66 81.4693 154.66 81.8C154.66 82.152 154.542 82.4507 154.308 82.696C154.073 82.9307 153.764 83.048 153.38 83.048ZM161.845 84.36C162.527 84.36 163.135 84.4933 163.669 84.76C164.213 85.0267 164.639 85.4373 164.949 85.992C165.258 86.536 165.413 87.24 165.413 88.104V93H163.413V88.36C163.413 87.6027 163.231 87.0373 162.869 86.664C162.517 86.2907 162.021 86.104 161.381 86.104C160.911 86.104 160.495 86.2 160.133 86.392C159.77 86.584 159.487 86.872 159.285 87.256C159.093 87.6293 158.997 88.104 158.997 88.68V93H156.997V84.456H158.901V86.76L158.565 86.056C158.863 85.512 159.295 85.096 159.861 84.808C160.437 84.5093 161.098 84.36 161.845 84.36ZM173.076 96.216C172.66 96.216 172.244 96.1467 171.828 96.008C171.412 95.8693 171.065 95.6773 170.788 95.432L171.588 93.96C171.79 94.1413 172.02 94.2853 172.276 94.392C172.532 94.4987 172.793 94.552 173.06 94.552C173.422 94.552 173.716 94.4613 173.94 94.28C174.164 94.0987 174.372 93.7947 174.564 93.368L175.06 92.248L175.22 92.008L178.452 84.456H180.372L176.372 93.688C176.105 94.328 175.806 94.8347 175.476 95.208C175.156 95.5813 174.793 95.8427 174.388 95.992C173.993 96.1413 173.556 96.216 173.076 96.216ZM174.836 93.304L170.98 84.456H173.06L176.196 91.832L174.836 93.304ZM185.227 93.112C184.353 93.112 183.574 92.9253 182.891 92.552C182.209 92.168 181.67 91.6453 181.275 90.984C180.881 90.3227 180.683 89.5707 180.683 88.728C180.683 87.8747 180.881 87.1227 181.275 86.472C181.67 85.8107 182.209 85.2933 182.891 84.92C183.574 84.5467 184.353 84.36 185.227 84.36C186.113 84.36 186.897 84.5467 187.579 84.92C188.273 85.2933 188.811 85.8053 189.195 86.456C189.59 87.1067 189.787 87.864 189.787 88.728C189.787 89.5707 189.59 90.3227 189.195 90.984C188.811 91.6453 188.273 92.168 187.579 92.552C186.897 92.9253 186.113 93.112 185.227 93.112ZM185.227 91.4C185.718 91.4 186.155 91.2933 186.539 91.08C186.923 90.8667 187.222 90.5573 187.435 90.152C187.659 89.7467 187.771 89.272 187.771 88.728C187.771 88.1733 187.659 87.6987 187.435 87.304C187.222 86.8987 186.923 86.5893 186.539 86.376C186.155 86.1627 185.723 86.056 185.243 86.056C184.753 86.056 184.315 86.1627 183.931 86.376C183.558 86.5893 183.259 86.8987 183.035 87.304C182.811 87.6987 182.699 88.1733 182.699 88.728C182.699 89.272 182.811 89.7467 183.035 90.152C183.259 90.5573 183.558 90.8667 183.931 91.08C184.315 91.2933 184.747 91.4 185.227 91.4ZM195.316 93.112C194.59 93.112 193.95 92.9787 193.396 92.712C192.841 92.4347 192.409 92.0187 192.1 91.464C191.79 90.8987 191.636 90.1893 191.636 89.336V84.456H193.636V89.064C193.636 89.832 193.806 90.408 194.148 90.792C194.5 91.1653 194.996 91.352 195.636 91.352C196.105 91.352 196.51 91.256 196.852 91.064C197.204 90.872 197.476 90.584 197.668 90.2C197.87 89.816 197.972 89.3413 197.972 88.776V84.456H199.972V93H198.068V90.696L198.404 91.4C198.116 91.9547 197.694 92.3813 197.14 92.68C196.585 92.968 195.977 93.112 195.316 93.112ZM202.59 93V84.456H204.494V86.808L204.27 86.12C204.526 85.544 204.926 85.1067 205.47 84.808C206.025 84.5093 206.713 84.36 207.534 84.36V86.264C207.449 86.2427 207.369 86.232 207.294 86.232C207.22 86.2213 207.145 86.216 207.07 86.216C206.313 86.216 205.71 86.44 205.262 86.888C204.814 87.3253 204.59 87.9813 204.59 88.856V93H202.59ZM218.579 84.36C219.262 84.36 219.87 84.4933 220.403 84.76C220.947 85.0267 221.374 85.4373 221.683 85.992C221.992 86.536 222.147 87.24 222.147 88.104V93H220.147V88.36C220.147 87.6027 219.966 87.0373 219.603 86.664C219.251 86.2907 218.755 86.104 218.115 86.104C217.646 86.104 217.23 86.2 216.867 86.392C216.504 86.584 216.222 86.872 216.019 87.256C215.827 87.6293 215.731 88.104 215.731 88.68V93H213.731V81.128H215.731V86.76L215.299 86.056C215.598 85.512 216.03 85.096 216.595 84.808C217.171 84.5093 217.832 84.36 218.579 84.36ZM229.948 93V91.272L229.836 90.904V87.88C229.836 87.2933 229.66 86.84 229.308 86.52C228.956 86.1893 228.423 86.024 227.708 86.024C227.228 86.024 226.753 86.0987 226.284 86.248C225.825 86.3973 225.436 86.6053 225.116 86.872L224.332 85.416C224.791 85.064 225.335 84.8027 225.964 84.632C226.604 84.4507 227.265 84.36 227.948 84.36C229.185 84.36 230.14 84.6587 230.812 85.256C231.495 85.8427 231.836 86.7547 231.836 87.992V93H229.948ZM227.26 93.112C226.62 93.112 226.06 93.0053 225.58 92.792C225.1 92.568 224.727 92.264 224.46 91.88C224.204 91.4853 224.076 91.0427 224.076 90.552C224.076 90.072 224.188 89.64 224.412 89.256C224.647 88.872 225.025 88.568 225.548 88.344C226.071 88.12 226.764 88.008 227.628 88.008H230.108V89.336H227.772C227.089 89.336 226.631 89.448 226.396 89.672C226.161 89.8853 226.044 90.152 226.044 90.472C226.044 90.8347 226.188 91.1227 226.476 91.336C226.764 91.5493 227.164 91.656 227.676 91.656C228.167 91.656 228.604 91.544 228.988 91.32C229.383 91.096 229.665 90.7653 229.836 90.328L230.172 91.528C229.98 92.0293 229.633 92.4187 229.132 92.696C228.641 92.9733 228.017 93.112 227.26 93.112ZM239.251 84.36C239.933 84.36 240.541 84.4933 241.075 84.76C241.619 85.0267 242.045 85.4373 242.355 85.992C242.664 86.536 242.819 87.24 242.819 88.104V93H240.819V88.36C240.819 87.6027 240.637 87.0373 240.275 86.664C239.923 86.2907 239.427 86.104 238.787 86.104C238.317 86.104 237.901 86.2 237.539 86.392C237.176 86.584 236.893 86.872 236.691 87.256C236.499 87.6293 236.403 88.104 236.403 88.68V93H234.403V84.456H236.307V86.76L235.971 86.056C236.269 85.512 236.701 85.096 237.267 84.808C237.843 84.5093 238.504 84.36 239.251 84.36ZM248.988 93.112C248.166 93.112 247.425 92.9307 246.764 92.568C246.113 92.1947 245.601 91.6827 245.228 91.032C244.854 90.3813 244.668 89.6133 244.668 88.728C244.668 87.8427 244.854 87.0747 245.228 86.424C245.601 85.7733 246.113 85.2667 246.764 84.904C247.425 84.5413 248.166 84.36 248.988 84.36C249.702 84.36 250.342 84.52 250.908 84.84C251.473 85.1493 251.921 85.624 252.252 86.264C252.582 86.904 252.748 87.7253 252.748 88.728C252.748 89.72 252.588 90.5413 252.268 91.192C251.948 91.832 251.505 92.312 250.94 92.632C250.374 92.952 249.724 93.112 248.988 93.112ZM249.228 91.4C249.708 91.4 250.134 91.2933 250.508 91.08C250.892 90.8667 251.196 90.5573 251.42 90.152C251.654 89.7467 251.772 89.272 251.772 88.728C251.772 88.1733 251.654 87.6987 251.42 87.304C251.196 86.8987 250.892 86.5893 250.508 86.376C250.134 86.1627 249.708 86.056 249.228 86.056C248.748 86.056 248.316 86.1627 247.932 86.376C247.558 86.5893 247.254 86.8987 247.02 87.304C246.796 87.6987 246.684 88.1733 246.684 88.728C246.684 89.272 246.796 89.7467 247.02 90.152C247.254 90.5573 247.558 90.8667 247.932 91.08C248.316 91.2933 248.748 91.4 249.228 91.4ZM251.82 93V90.984L251.9 88.712L251.74 86.44V81.128H253.724V93H251.82Z" fill="#374B73"/>
<path d="M66.6971 57.2647C65.6858 56.8192 64.5088 56.5585 63.2766 56.5585C61.893 56.5585 60.5815 56.885 59.4069 57.4697L59.4622 57.4444L45.5833 64.0155C45.5905 63.8966 45.6457 63.7928 45.6457 63.6738C45.6121 60.2035 42.9338 57.4039 39.6358 57.4039C39.4701 57.4039 39.3092 57.4115 39.1458 57.4242L39.1674 57.4216H30.0806L18.6469 53.8931C18.498 53.845 18.3251 53.8171 18.1449 53.8171H18.1401H12.9301V51.8984C12.9301 50.8505 12.123 50 11.1286 50H1.80152C0.807081 50 0 50.8505 0 51.8984V82.7999C0 83.8479 0.807081 84.6984 1.80152 84.6984H11.1286C12.123 84.6984 12.9301 83.8479 12.9301 82.7999V80.2586C17.297 80.9774 21.2075 82.1368 24.9114 83.7163L24.5511 83.5796C27.3351 84.6326 30.549 85.2401 33.8974 85.2401C37.7575 85.2401 41.4374 84.4326 44.793 82.967L44.6032 83.0404C47.589 81.6406 50.1231 80.1649 52.5227 78.4867L52.3257 78.6158C53.1376 78.0867 53.9447 77.5577 54.7614 77.0489C58.7031 74.5911 61.8498 72.4446 64.6794 70.288C66.0726 69.2426 67.288 68.2073 68.4434 67.1062L68.4073 67.1391C69.2961 66.3772 70.0071 65.4204 70.4851 64.3294L70.5043 64.2813C70.5812 64.0788 70.6244 63.8459 70.6244 63.6004C70.6244 63.4587 70.61 63.3194 70.5812 63.1853L70.5836 63.1979C70.2305 60.6262 68.7676 58.4746 66.7331 57.2799L66.6947 57.2596L66.6971 57.2647ZM9.32947 80.9066H3.60544V53.8019H9.32947V80.9066ZM65.8684 64.4509C64.8787 65.3875 63.8002 66.2987 62.6785 67.1416L62.5656 67.2226C59.8345 69.3033 56.7719 71.3916 52.9239 73.7938C52.088 74.3127 51.2641 74.8518 50.433 75.391C48.3792 76.8439 46.018 78.2285 43.5487 79.4055L43.2365 79.5372C40.4693 80.7344 37.2554 81.4305 33.8902 81.4305C31.0006 81.4305 28.2262 80.9192 25.6392 79.9751L25.817 80.0307C22.0818 78.3804 17.7366 77.1198 13.2063 76.4617L12.9301 76.4288V57.6165H17.8807L29.3143 61.1451C29.4633 61.1932 29.6362 61.221 29.8164 61.221H29.8212H39.165C41.286 61.221 42.0403 62.5423 42.0403 63.6763C42.0403 64.8103 41.286 66.1317 39.165 66.1317H22.8096C21.8152 66.1317 21.0081 66.9822 21.0081 68.0301C21.0081 69.078 21.8152 69.9285 22.8096 69.9285H41.4998C41.7664 69.9285 42.0187 69.8678 42.2468 69.7589L42.2348 69.764L60.9586 60.8996C61.648 60.5654 62.4551 60.368 63.3054 60.368C63.9444 60.368 64.5569 60.4768 65.131 60.6819L65.0901 60.6692C66.0077 61.2489 66.6707 62.1981 66.8916 63.3144L66.8964 63.3397C66.5722 63.7422 66.2335 64.1041 65.8708 64.4382L65.8588 64.4484L65.8684 64.4509Z" fill="#FFB4B4"/>
<path d="M50.056 33.7699C50.056 32.9655 49.2941 32.3158 48.3559 32.3158H35.8587L29.6916 24C29.6916 24 29.3614 24.2728 28.953 24.6081C28.5459 24.9449 28.6828 25.8489 29.2598 26.6287L33.4792 32.3158H21.6994C20.7605 32.315 20 32.9648 20 33.7699V35.2233H50.056C50.056 35.2233 50.056 34.5743 50.056 33.7699Z" fill="#FFB4B4"/>
<path d="M43.7371 50C45.6136 50 47.1353 48.395 47.1353 46.4205L48.834 36.719H24.6199C22.7434 36.719 21.2217 38.3225 21.2217 40.3L22.9204 50H43.7371ZM40.9731 40.7483C40.9731 39.7595 41.6553 38.9567 42.4955 38.9567H44.0185V45.5239C44.0185 46.5127 43.3364 47.3141 42.4955 47.3141H40.9731V40.7483ZM35.6631 40.7483C35.6631 39.7595 36.346 38.9567 37.1855 38.9567H38.7093V45.5239C38.7093 46.5127 38.0271 47.3141 37.1855 47.3141H35.6631V40.7483ZM30.3538 40.7483C30.3538 39.7595 31.036 38.9567 31.8762 38.9567H33.3993V45.5239C33.3993 46.5127 32.7171 47.3141 31.8762 47.3141H30.3538V40.7483ZM25.0431 40.7483C25.0431 39.7595 25.7253 38.9567 26.5662 38.9567H28.0886V45.5239C28.0886 46.5127 27.4064 47.3141 26.5662 47.3141H25.0431V40.7483Z" fill="#FFB4B4"/>
</svg>
