<svg width="95" height="96" viewBox="0 0 95 96" fill="none" xmlns="http://www.w3.org/2000/svg">
<g clip-path="url(#clip0_262_137)">
<path d="M85.3625 75.4287H72.9712" stroke="#FFB4B4" stroke-width="3.75" stroke-miterlimit="10" stroke-linecap="round" stroke-linejoin="round"/>
<path d="M78.478 69.9429V82.2857" stroke="#FFB4B4" stroke-width="3.75" stroke-miterlimit="10" stroke-linecap="round" stroke-linejoin="round"/>
<path d="M12.3911 31.543L49.0007 53.4858L85.3621 31.6717" stroke="#374B73" stroke-width="3.75" stroke-linecap="round" stroke-linejoin="round"/>
<path d="M49.5654 91.8858V53.4858" stroke="#374B73" stroke-width="3.75" stroke-linecap="round" stroke-linejoin="round"/>
<path d="M89.4928 38.7113V62.7743C89.4928 62.9869 89.4928 63.157 89.4512 63.3695C86.5429 60.7762 82.8036 59.2457 78.6488 59.2457C74.7433 59.2457 71.1286 60.6486 68.2618 62.9869C64.4394 66.0905 62.0296 70.8946 62.0296 76.2514C62.0296 79.4399 62.9021 82.4585 64.4394 85.0093C64.8133 85.6895 65.2703 86.3273 65.7689 86.9225L58.1656 91.2164C53.4292 93.9373 45.7013 93.9373 40.9648 91.2164L18.7782 78.6322C13.7509 75.7837 9.6377 68.6413 9.6377 62.7743V38.7113C9.6377 32.8443 13.7509 25.702 18.7782 22.8535L40.9648 10.2692C45.7013 7.54829 53.4292 7.54829 58.1656 10.2692L80.3522 22.8535C85.3795 25.702 89.4928 32.8443 89.4928 38.7113Z" stroke="#374B73" stroke-width="3.75" stroke-linecap="round" stroke-linejoin="round"/>
<path d="M95 76.114C95 79.3283 94.1326 82.3712 92.6044 84.9426C91.737 86.4855 90.6218 87.8569 89.3413 88.9712C86.45 91.6712 82.65 93.2569 78.4783 93.2569C73.4392 93.2569 68.937 90.8998 65.9631 87.214C65.8805 87.0855 65.7565 86.9998 65.6739 86.8712C65.1783 86.2712 64.7239 85.6283 64.3522 84.9426C62.8239 82.3712 61.9565 79.3283 61.9565 76.114C61.9565 70.714 64.3522 65.8712 68.1522 62.7426C71.0022 60.3855 74.5957 58.9712 78.4783 58.9712C82.6087 58.9712 86.3261 60.514 89.2174 63.1283C89.7131 63.514 90.1674 63.9855 90.5805 64.4569C93.3065 67.5426 95 71.614 95 76.114Z" stroke="#FFB4B4" stroke-width="3.75" stroke-miterlimit="10" stroke-linecap="round" stroke-linejoin="round"/>
</g>
<defs>
<clipPath id="clip0_262_137">
<rect width="95" height="96" fill="white"/>
</clipPath>
</defs>
</svg>
