<svg width="61" height="61" viewBox="0 0 61 61" fill="none" xmlns="http://www.w3.org/2000/svg">
<path d="M30.9566 5.86957C26.012 5.86957 21.1785 7.33579 17.0673 10.0828C12.9561 12.8299 9.75176 16.7343 7.85957 21.3025C5.96738 25.8706 5.47229 30.8973 6.43692 35.7468C7.40155 40.5964 9.78257 45.0509 13.2789 48.5472C16.7752 52.0436 21.2298 54.4246 26.0793 55.3892C30.9288 56.3538 35.9555 55.8587 40.5236 53.9666C45.0918 52.0744 48.9963 48.8701 51.7433 44.7588C54.4903 40.6476 55.9566 35.8141 55.9566 30.8696C55.9566 27.5865 55.3099 24.3356 54.0535 21.3025C52.7972 18.2693 50.9557 15.5134 48.6342 13.1919C46.3128 10.8704 43.5568 9.02895 40.5236 7.77258C37.4905 6.51621 34.2396 5.86957 30.9566 5.86957ZM40.2316 36.5946C40.4659 36.827 40.6519 37.1035 40.7788 37.4081C40.9057 37.7128 40.9711 38.0395 40.9711 38.3696C40.9711 38.6996 40.9057 39.0264 40.7788 39.331C40.6519 39.6357 40.4659 39.9122 40.2316 40.1446C39.9991 40.3789 39.7226 40.5649 39.418 40.6918C39.1133 40.8187 38.7866 40.8841 38.4566 40.8841C38.1265 40.8841 37.7998 40.8187 37.4951 40.6918C37.1905 40.5649 36.914 40.3789 36.6816 40.1446L30.9566 34.4196L25.2316 40.1446C24.9991 40.3789 24.7226 40.5649 24.418 40.6918C24.1133 40.8187 23.7866 40.8841 23.4566 40.8841C23.1265 40.8841 22.7998 40.8187 22.4951 40.6918C22.1905 40.5649 21.914 40.3789 21.6816 40.1446C21.4472 39.9122 21.2612 39.6357 21.1343 39.331C21.0074 39.0264 20.9421 38.6996 20.9421 38.3696C20.9421 38.0395 21.0074 37.7128 21.1343 37.4081C21.2612 37.1035 21.4472 36.827 21.6816 36.5946L27.4066 30.8696L21.6816 25.1446C21.2108 24.6738 20.9463 24.0353 20.9463 23.3696C20.9463 22.7038 21.2108 22.0653 21.6816 21.5946C22.1523 21.1238 22.7908 20.8593 23.4566 20.8593C24.1223 20.8593 24.7608 21.1238 25.2316 21.5946L30.9566 27.3196L36.6816 21.5946C37.1523 21.1238 37.7908 20.8593 38.4566 20.8593C39.1223 20.8593 39.7608 21.1238 40.2316 21.5946C40.7023 22.0653 40.9668 22.7038 40.9668 23.3696C40.9668 24.0353 40.7023 24.6738 40.2316 25.1446L34.5066 30.8696L40.2316 36.5946Z" fill="#FF0202"/>
</svg>
