<svg width="79" height="69" viewBox="0 0 79 69" fill="none" xmlns="http://www.w3.org/2000/svg">
<path d="M24.6875 39.4286H22.2188C16.7644 39.4286 12.3438 43.8489 12.3438 49.3042V59.1244C12.3438 64.5781 16.7644 69 22.2188 69H24.6875C27.4139 69 29.625 66.7883 29.625 64.0622V44.3664C29.625 41.6387 27.4139 39.4286 24.6875 39.4286ZM56.7812 39.4286H54.3125C51.5861 39.4286 49.375 41.6387 49.375 44.3664V64.0622C49.375 66.7883 51.5861 69 54.3125 69H56.7812C62.2356 69 66.6562 64.5781 66.6562 59.1244V49.3042C66.6562 43.8504 62.2356 39.4286 56.7812 39.4286ZM39.5 0C17.4217 0 0.705137 18.3481 0 39.4286V56.6786C0 58.0401 1.10477 59.1429 2.46875 59.1429H4.9375C6.30148 59.1429 7.40625 58.0401 7.40625 56.6786V39.4286C7.40625 21.7673 21.8068 7.42366 39.5 7.42058C57.1932 7.42366 71.5938 21.7673 71.5938 39.4286V56.6786C71.5938 58.0401 72.6985 59.1429 74.0625 59.1429H76.5312C77.8952 59.1429 79 58.0401 79 56.6786V39.4286C78.2949 18.3481 61.5783 0 39.5 0Z" fill="#374B73"/>
</svg>
