<svg width="56" height="53" viewBox="0 0 56 53" fill="none" xmlns="http://www.w3.org/2000/svg">
<path d="M30.5 33H25.5V48H30.5V33Z" fill="#D8D8D8"/>
<mask id="mask0_251_140" style="mask-type:luminance" maskUnits="userSpaceOnUse" x="25" y="33" width="6" height="15">
<path d="M30.5 33H25.5V48H30.5V33Z" fill="#FFA0A0"/>
</mask>
<g mask="url(#mask0_251_140)">
<path d="M58 -2H-2V58H58V-2Z" fill="#FFA0A0"/>
</g>
<path d="M35.5 48H43V28C43 26.6193 44.1193 25.5 45.5 25.5H46.9645L28 6.53553L9.03553 25.5H10.5C11.8807 25.5 13 26.6193 13 28V48H20.5V33C20.5 30.2386 22.7386 28 25.5 28H30.5C33.2614 28 35.5 30.2386 35.5 33V48ZM8.00364 30.5H3.00456C0.777699 30.5 -0.337515 27.8071 1.23711 26.2322L26.2326 1.23223C27.2087 0.255922 28.7913 0.255922 29.7674 1.23223L54.7629 26.2322C56.3375 27.8071 55.2223 30.5 52.9954 30.5H47.9964V50.5C47.9964 51.8807 46.8773 53 45.4968 53H10.5032C9.12273 53 8.00364 51.8807 8.00364 50.5V30.5ZM25.5 33V48H30.5V33H25.5Z" fill="#374B73"/>
<mask id="mask1_251_140" style="mask-type:luminance" maskUnits="userSpaceOnUse" x="0" y="0" width="56" height="53">
<path d="M35.5 48H43V28C43 26.6193 44.1193 25.5 45.5 25.5H46.9645L28 6.53553L9.03553 25.5H10.5C11.8807 25.5 13 26.6193 13 28V48H20.5V33C20.5 30.2386 22.7386 28 25.5 28H30.5C33.2614 28 35.5 30.2386 35.5 33V48ZM8.00364 30.5H3.00456C0.777699 30.5 -0.337515 27.8071 1.23711 26.2322L26.2326 1.23223C27.2087 0.255922 28.7913 0.255922 29.7674 1.23223L54.7629 26.2322C56.3375 27.8071 55.2223 30.5 52.9954 30.5H47.9964V50.5C47.9964 51.8807 46.8773 53 45.4968 53H10.5032C9.12273 53 8.00364 51.8807 8.00364 50.5V30.5ZM25.5 33V48H30.5V33H25.5Z" fill="#374B73"/>
</mask>
<g mask="url(#mask1_251_140)">
<path d="M58 -2H-2V58H58V-2Z" fill="#374B73"/>
</g>
</svg>
