<svg width="50" height="50" viewBox="0 0 33 31" fill="none" xmlns="http://www.w3.org/2000/svg">
<path d="M7.95147 1.39453C9.0833 1.39453 10.0007 2.29688 10.0007 3.41016V6.48633L31.583 6.50391V3.42774C31.583 2.31445 30.6656 1.41211 29.5338 1.41211L29.4266 1.39453H7.95147Z" fill="white"/>
<path d="M25.215 29.4258C26.3469 29.4258 27.2643 28.5234 27.2643 27.4102V3.41602C27.2643 2.30273 28.1816 1.40039 29.3135 1.40039H7.73115C6.59932 1.40039 5.68194 2.30273 5.68194 3.41602V24.334" fill="white"/>
<path d="M25.001 29.4258C23.8691 29.4258 22.9518 28.5234 22.9518 27.4102V24.334H1.36943V27.4102C1.36943 28.5234 2.28682 29.4258 3.41865 29.4258H25.001Z" fill="white"/>
<path d="M10.4296 6.49219H22.5164C22.7547 6.49219 22.9453 6.67969 22.9453 6.91406C22.9453 7.14844 22.7547 7.33594 22.5164 7.33594H10.4296C10.1913 7.33594 10.0007 7.14844 10.0007 6.91406C10.0007 6.67969 10.1913 6.49219 10.4296 6.49219ZM10.4296 9.04102H22.5164C22.7547 9.04102 22.9453 9.22852 22.9453 9.46289C22.9453 9.69727 22.7547 9.88477 22.5164 9.88477H10.4296C10.1913 9.88477 10.0007 9.69727 10.0007 9.46289C10.0007 9.22852 10.1913 9.04102 10.4296 9.04102ZM10.4296 11.5898H22.5164C22.7547 11.5898 22.9453 11.7773 22.9453 12.0117C22.9453 12.2461 22.7547 12.4336 22.5164 12.4336H10.4296C10.1913 12.4336 10.0007 12.2461 10.0007 12.0117C10.0007 11.7773 10.1913 11.5898 10.4296 11.5898ZM10.4296 14.1328H22.5164C22.7547 14.1328 22.9453 14.3203 22.9453 14.5547C22.9453 14.7891 22.7547 14.9766 22.5164 14.9766H10.4296C10.1913 14.9766 10.0007 14.7891 10.0007 14.5547C10.0007 14.3262 10.1913 14.1328 10.4296 14.1328ZM10.4296 16.6816H22.5164C22.7547 16.6816 22.9453 16.8691 22.9453 17.1035C22.9453 17.3379 22.7547 17.5254 22.5164 17.5254H10.4296C10.1913 17.5254 10.0007 17.3379 10.0007 17.1035C10.0007 16.875 10.1913 16.6816 10.4296 16.6816ZM10.4296 19.2305H22.5164C22.7547 19.2305 22.9453 19.418 22.9453 19.6523C22.9453 19.8867 22.7547 20.0742 22.5164 20.0742H10.4296C10.1913 20.0742 10.0007 19.8867 10.0007 19.6523C10.0007 19.418 10.1913 19.2305 10.4296 19.2305Z" fill="#FFB4B4"/>
<path d="M1.36934 23.4785H4.82441V3.41602C4.82441 1.83398 6.12901 0.550781 7.7374 0.550781H29.6295C31.2021 0.591797 32.4531 1.88086 32.4531 3.43359V6.50977C32.4531 6.73242 32.3638 6.94922 32.2029 7.11328C32.0421 7.27148 31.8217 7.35938 31.5953 7.35938H28.1402V27.4102C28.1402 28.9922 26.8356 30.2754 25.2272 30.2754C25.1915 30.2754 25.1558 30.2695 25.12 30.2637C25.0843 30.2695 25.0485 30.2754 25.0128 30.2754H3.42451C1.81611 30.2754 0.511523 28.9922 0.511523 27.4102V24.334C0.505566 23.8594 0.886817 23.4785 1.36934 23.4785ZM30.7196 5.66016V3.43359C30.7196 2.15625 29.3555 2.25 29.3555 2.25H29.3138C28.6585 2.25 28.1283 2.77148 28.1283 3.41602V5.66016H30.7196ZM23.8154 24.3281V27.4043C23.8154 28.0488 24.3456 28.5703 25.0009 28.5703C25.0366 28.5703 25.0724 28.5762 25.1081 28.582C25.1438 28.5762 25.1796 28.5703 25.2153 28.5703C25.8706 28.5703 26.4008 28.0488 26.4008 27.4043V3.41602C26.4008 3 26.4901 2.60742 26.651 2.25H7.73145C7.07617 2.25 6.546 2.77148 6.546 3.41602V23.4844H22.9517C23.4282 23.4785 23.8154 23.8594 23.8154 24.3281ZM2.23311 27.4102C2.23311 28.0547 2.76328 28.5762 3.41856 28.5762H22.344C22.1832 28.2188 22.0938 27.8262 22.0938 27.4102V25.1836H2.23311V27.4102Z" fill="#374B73"/>
</svg>
