<svg width="50" height="50" viewBox="0 0 50 50" fill="none" xmlns="http://www.w3.org/2000/svg">
<path d="M2.5 40H47.5V47.5H2.5V40ZM20 17.5H30V35H20V17.5Z" fill="#D8D8D8"/>
<mask id="mask0_251_164" style="mask-type:luminance" maskUnits="userSpaceOnUse" x="2" y="17" width="46" height="31">
<path d="M2.5 40H47.5V47.5H2.5V40ZM20 17.5H30V35H20V17.5Z" fill="#FFA0A0"/>
</mask>
<g mask="url(#mask0_251_164)">
<path d="M55 -5H-5V55H55V-5Z" fill="#FFA0A0"/>
</g>
<path d="M35 20V35C35 36.3807 33.8807 37.5 32.5 37.5H17.5C16.1193 37.5 15 36.3807 15 35V20H5V45H45V20H35ZM30 20H20V32.5H30V20ZM5 15H45L37.5 5H12.5L5 15ZM0 45V15C0 13.9181 0.350889 12.8655 1 12L8.5 2C9.44427 0.740971 10.9262 0 12.5 0H37.5C39.0738 0 40.5557 0.740971 41.5 2L49 12C49.6491 12.8655 50 13.9181 50 15V45C50 47.7614 47.7614 50 45 50H5C2.23858 50 0 47.7614 0 45Z" fill="#374B73"/>
<mask id="mask1_251_164" style="mask-type:luminance" maskUnits="userSpaceOnUse" x="0" y="0" width="50" height="50">
<path d="M35 20V35C35 36.3807 33.8807 37.5 32.5 37.5H17.5C16.1193 37.5 15 36.3807 15 35V20H5V45H45V20H35ZM30 20H20V32.5H30V20ZM5 15H45L37.5 5H12.5L5 15ZM0 45V15C0 13.9181 0.350889 12.8655 1 12L8.5 2C9.44427 0.740971 10.9262 0 12.5 0H37.5C39.0738 0 40.5557 0.740971 41.5 2L49 12C49.6491 12.8655 50 13.9181 50 15V45C50 47.7614 47.7614 50 45 50H5C2.23858 50 0 47.7614 0 45Z" fill="#7600FF"/>
</mask>
<g mask="url(#mask1_251_164)">
<path d="M55 -5H-5V55H55V-5Z" fill="#374B73"/>
</g>
</svg>
