<svg width="61" height="61" viewBox="0 0 61 61" fill="none" xmlns="http://www.w3.org/2000/svg">
<path d="M55.8278 40.2267C55.8384 42.2158 55.0584 44.1276 53.6593 45.5416C52.2603 46.9555 50.3569 47.7558 48.3678 47.7664L43.3679 47.7929C41.3788 47.8035 39.4669 47.0235 38.053 45.6244C36.639 44.2254 35.8387 42.322 35.8281 40.3329L35.8149 37.8329C35.7352 22.8331 40.752 12.8063 53.1819 12.7403C43.2346 22.6983 45.7616 27.7799 45.7616 27.7799L48.2616 27.7667C50.2507 27.7561 52.1625 28.5361 53.5765 29.9352C54.9904 31.3342 55.7907 33.2376 55.8013 35.2267L55.8278 40.2267Z" stroke="#374B73" stroke-width="3.75" stroke-miterlimit="10" stroke-linejoin="round"/>
<path d="M25.8283 40.3861C25.8389 42.3752 25.0589 44.287 23.6598 45.701C22.2608 47.115 20.3574 47.9153 18.3683 47.9258L13.3683 47.9524C11.3792 47.9629 9.46742 47.1829 8.05345 45.7839C6.63948 44.3848 5.83918 42.4814 5.82862 40.4923L5.81534 37.9923C5.73569 22.9925 10.7525 12.9658 23.1823 12.8998C13.2351 22.8577 15.7621 27.9394 15.7621 27.9394L18.2621 27.9261C20.2512 27.9155 22.163 28.6956 23.577 30.0946C24.9909 31.4936 25.7912 33.3971 25.8018 35.3862L25.8283 40.3861Z" stroke="#374B73" stroke-width="3.75" stroke-miterlimit="10" stroke-linejoin="round"/>
</svg>
