<svg width="50" height="50" viewBox="0 0 50 50" fill="none" xmlns="http://www.w3.org/2000/svg">
<path d="M17.8829 8.52095C21.0495 2.84033 22.6328 0 25 0C27.3673 0 28.9505 2.8403 32.117 8.52093L32.9363 9.99058C33.8363 11.6048 34.286 12.412 34.9878 12.9445C35.6893 13.4771 36.5628 13.6747 38.3103 14.0701L39.9013 14.4301C46.0503 15.8214 49.125 16.5171 49.8565 18.8693C50.588 21.2215 48.492 23.6728 44.2998 28.5748L43.2153 29.843C42.024 31.236 41.4283 31.9325 41.1603 32.7942C40.8925 33.656 40.9825 34.5853 41.1625 36.444L41.3265 38.136C41.9603 44.6765 42.2773 47.9468 40.3623 49.4005C38.447 50.8543 35.5683 49.5287 29.8108 46.878L28.3213 46.192C26.6853 45.4388 25.8673 45.062 25 45.062C24.1328 45.062 23.3148 45.4388 21.6788 46.192L20.1893 46.878C14.4317 49.5287 11.553 50.8543 9.63788 49.4005C7.72281 47.9468 8.0397 44.6765 8.6735 38.136L8.83745 36.444C9.01758 34.5853 9.10763 33.656 8.83965 32.7942C8.5717 31.9325 7.97608 31.236 6.78481 29.843L5.70025 28.5748C1.50813 23.6728 -0.587945 21.2215 0.143555 18.8693C0.875055 16.5171 3.94965 15.8214 10.0989 14.4301L11.6897 14.0701C13.4371 13.6747 14.3108 13.4771 15.0124 12.9445C15.7139 12.412 16.1638 11.6049 17.0637 9.99058L17.8829 8.52095Z" fill="#F9D967"/>
</svg>
