<svg width="54" height="54" viewBox="0 0 54 54" fill="none" xmlns="http://www.w3.org/2000/svg">
<path d="M19.8829 10.521C23.0495 4.84033 24.6328 2 27 2C29.3673 2 30.9505 4.8403 34.117 10.5209L34.9363 11.9906C35.8363 13.6048 36.286 14.412 36.9878 14.9445C37.6893 15.4771 38.5628 15.6747 40.3103 16.0701L41.9013 16.4301C48.0503 17.8214 51.125 18.5171 51.8565 20.8693C52.588 23.2215 50.492 25.6728 46.2998 30.5748L45.2153 31.843C44.024 33.236 43.4283 33.9325 43.1603 34.7942C42.8925 35.656 42.9825 36.5853 43.1625 38.444L43.3265 40.136C43.9603 46.6765 44.2773 49.9468 42.3623 51.4005C40.447 52.8543 37.5683 51.5287 31.8108 48.878L30.3213 48.192C28.6853 47.4388 27.8673 47.062 27 47.062C26.1328 47.062 25.3148 47.4388 23.6788 48.192L22.1893 48.878C16.4317 51.5287 13.553 52.8543 11.6379 51.4005C9.72281 49.9468 10.0397 46.6765 10.6735 40.136L10.8375 38.444C11.0176 36.5853 11.1076 35.656 10.8397 34.7942C10.5717 33.9325 9.97608 33.236 8.78481 31.843L7.70025 30.5748C3.50813 25.6728 1.41205 23.2215 2.14355 20.8693C2.87505 18.5171 5.94965 17.8214 12.0989 16.4301L13.6897 16.0701C15.4371 15.6747 16.3108 15.4771 17.0124 14.9445C17.7139 14.412 18.1638 13.6049 19.0637 11.9906L19.8829 10.521Z" stroke="#F9D967" stroke-width="3.75"/>
</svg>
