<svg width="26" height="26" viewBox="0 0 26 26" fill="none" xmlns="http://www.w3.org/2000/svg">
<g clip-path="url(#clip0_410_139)">
<path d="M12.906 -0.0309128C12.8637 -0.0232761 12.822 -0.0129213 12.781 8.71904e-05C12.5552 0.0506889 12.354 0.178011 12.2116 0.360356C12.0692 0.542702 11.9944 0.768787 12 1.00009V2.00009H3C2.20435 2.00009 1.44129 2.31616 0.87868 2.87877C0.31607 3.44138 0 4.20444 0 5.00009L0 18.0001C0 19.6561 1.344 21.0001 3 21.0001H12V21.3751L6.562 24.0941C6.32171 24.2101 6.13736 24.4169 6.0495 24.6688C5.96164 24.9208 5.97747 25.1973 6.0935 25.4376C6.20953 25.6779 6.41627 25.8622 6.66822 25.9501C6.92018 26.0379 7.19671 26.0221 7.437 25.9061L12 23.6251V24.0001C12 24.2653 12.1054 24.5197 12.2929 24.7072C12.4804 24.8947 12.7348 25.0001 13 25.0001C13.2652 25.0001 13.5196 24.8947 13.7071 24.7072C13.8946 24.5197 14 24.2653 14 24.0001V23.6251L18.563 25.9061C18.8033 26.0221 19.0798 26.0379 19.3318 25.9501C19.5837 25.8622 19.7905 25.6779 19.9065 25.4376C20.0225 25.1973 20.0384 24.9208 19.9505 24.6688C19.8626 24.4169 19.6783 24.2101 19.438 24.0941L14 21.3751V21.0001H23C24.656 21.0001 26 19.6561 26 18.0001V5.00009C26 4.20444 25.6839 3.44138 25.1213 2.87877C24.5587 2.31616 23.7956 2.00009 23 2.00009H14V1.00009C14.005 0.857885 13.9797 0.716243 13.9256 0.584623C13.8716 0.453004 13.79 0.334439 13.6865 0.236849C13.5829 0.139259 13.4597 0.0648927 13.3251 0.0187176C13.1905 -0.0274576 13.0477 -0.0443779 12.906 -0.0309128ZM2 5.00009H24V18.0001H2V5.00009ZM20.875 6.00009C20.651 6.02417 20.4417 6.12318 20.281 6.28109L17 9.56309L14.719 7.28009C14.6098 7.168 14.4757 7.08312 14.3277 7.03227C14.1797 6.98142 14.0218 6.96603 13.8667 6.98734C13.7117 7.00864 13.5638 7.06604 13.435 7.15493C13.3061 7.24381 13.2 7.36169 13.125 7.49909L10.156 12.6871L8.937 9.62409C8.87781 9.46594 8.77953 9.32535 8.65132 9.21544C8.52312 9.10553 8.36918 9.02988 8.20384 8.99553C8.0385 8.96118 7.86716 8.96927 7.70579 9.01903C7.54443 9.06878 7.39828 9.1586 7.281 9.28009L4.281 12.2801C4.18645 12.3746 4.11143 12.4868 4.06024 12.6102C4.00904 12.7337 3.98267 12.8661 3.98262 12.9997C3.98257 13.1334 4.00886 13.2658 4.05997 13.3893C4.11108 13.5128 4.18601 13.625 4.2805 13.7196C4.37499 13.8141 4.48717 13.8892 4.61065 13.9404C4.73412 13.9915 4.86648 14.0179 5.00015 14.018C5.13382 14.018 5.26619 13.9917 5.3897 13.9406C5.51321 13.8895 5.62545 13.8146 5.72 13.7201L7.626 11.8141L9.064 15.3761C9.13187 15.5547 9.2495 15.7102 9.40298 15.8241C9.55645 15.9379 9.73934 16.0054 9.92999 16.0186C10.1206 16.0317 10.3111 15.99 10.4787 15.8983C10.6464 15.8065 10.7842 15.6687 10.876 15.5011L14.22 9.65709L16.282 11.7201C16.3753 11.8166 16.487 11.8933 16.6105 11.9457C16.734 11.9981 16.8668 12.0251 17.001 12.0251C17.1352 12.0251 17.268 11.9981 17.3915 11.9457C17.515 11.8933 17.6267 11.8166 17.72 11.7201L21.72 7.72009C21.878 7.57384 21.9845 7.38053 22.0238 7.16888C22.0631 6.95723 22.0331 6.73854 21.9382 6.54533C21.8433 6.35212 21.6885 6.19469 21.497 6.09646C21.3054 5.99823 21.0873 5.96443 20.875 6.00009Z" fill="#374B73"/>
</g>
<defs>
<clipPath id="clip0_410_139">
<rect width="26" height="26" fill="white"/>
</clipPath>
</defs>
</svg>
