<svg width="48" height="60" viewBox="0 0 48 60" fill="none" xmlns="http://www.w3.org/2000/svg">
<path d="M3.89799 54.4608C4.17502 57.5961 6.80119 60.0001 9.94955 60.0001H37.0812C40.2286 60.0001 42.8557 57.5961 43.1328 54.4608L46.1378 15.0942H0.893066L3.89799 54.4608ZM42.8339 18.156L40.083 54.1907C39.9445 55.7575 38.6539 56.9385 37.0812 56.9385H9.94955C8.37689 56.9385 7.08619 55.7575 6.95061 54.2277L4.19693 18.156H42.8339Z" fill="#374B73"/>
<path d="M14.9559 51.0164C15.6446 50.9755 16.1688 50.3836 16.1268 49.6958L14.9389 25.9965C14.8969 25.3079 14.306 24.7837 13.6172 24.8256C12.9285 24.8674 12.4044 25.4595 12.4462 26.1471L13.6341 49.8464C13.6761 50.535 14.2681 51.0582 14.9559 51.0164Z" fill="#374B73"/>
<path d="M23.516 51.0191C24.2056 51.0191 24.7647 50.4609 24.7647 49.7713V26.0711C24.7647 25.3814 24.2056 24.8232 23.516 24.8232C22.8263 24.8232 22.2671 25.3814 22.2671 26.0711V49.7713C22.2672 50.4609 22.8263 51.0191 23.516 51.0191Z" fill="#374B73"/>
<path d="M32.0756 51.0164C32.7644 51.0582 33.3554 50.535 33.3973 49.8464L34.5843 26.1471C34.625 25.4595 34.1019 24.8674 33.4132 24.8256C32.7245 24.7837 32.1335 25.3079 32.0917 25.9965L30.9047 49.6958C30.8628 50.3835 31.387 50.9755 32.0756 51.0164Z" fill="#374B73"/>
<path d="M44.9746 7.56059C44.9746 7.56059 40.9811 6.89684 39.8957 6.56695C38.9229 6.27094 30.4275 4.97719 30.4275 4.97719L30.1085 2.71582C29.8894 1.15512 28.6116 0 27.1066 0H23.5147H19.9228C18.4199 0 17.1422 1.15512 16.9209 2.71582L16.6021 4.97719C16.6021 4.97719 8.10961 6.27082 7.1359 6.56695C6.05062 6.89684 2.055 7.56059 2.055 7.56059C0.845156 7.89434 0 9.04359 0 10.357V12.9265H23.5148H47.0316V10.357C47.0316 9.04359 46.1864 7.89434 44.9746 7.56059ZM25.8968 4.54969H21.1348C20.7122 4.54969 20.3693 4.20691 20.3693 3.78422C20.3693 3.36152 20.7122 3.01875 21.1348 3.01875H25.8968C26.3194 3.01875 26.6623 3.36152 26.6623 3.78422C26.6623 4.20691 26.3194 4.54969 25.8968 4.54969Z" fill="#FFB4B4"/>
</svg>
