<svg width="34" height="33" viewBox="0 0 34 33" fill="none" xmlns="http://www.w3.org/2000/svg">
<path fill-rule="evenodd" clip-rule="evenodd" d="M7.98439 25.2505C12.9636 30.0832 21.0364 30.0832 26.0157 25.2505C30.9948 20.4177 30.9948 12.5823 26.0157 7.74955C21.0364 2.91682 12.9636 2.91682 7.98439 7.74955C3.0052 12.5823 3.0052 20.4177 7.98439 25.2505ZM11.0606 24.2092C14.9448 27.0357 20.4796 26.7345 24.0121 23.3058C27.5447 19.8773 27.8549 14.5053 24.9428 10.7353L21.0069 14.5555C20.4537 15.0924 19.5567 15.0924 19.0034 14.5555C18.4502 14.0185 18.4502 13.1479 19.0034 12.6109L22.9394 8.79075C19.0552 5.9643 13.5204 6.26541 9.98785 9.69409C6.45527 13.1228 6.14503 18.4947 9.05713 22.2647L12.9931 18.4445C13.5463 17.9076 14.4433 17.9076 14.9965 18.4445C15.5498 18.9815 15.5498 19.8521 14.9965 20.389L11.0606 24.2092Z" fill="#45F657"/>
</svg>
