<svg width="61" height="61" viewBox="0 0 61 61" fill="none" xmlns="http://www.w3.org/2000/svg">
<path d="M53.2932 11.434H8.29321C7.29865 11.434 6.34482 11.829 5.64156 12.5323C4.9383 13.2356 4.54321 14.1894 4.54321 15.184V45.184C4.54321 46.1785 4.9383 47.1323 5.64156 47.8356C6.34482 48.5389 7.29865 48.934 8.29321 48.934H53.2932C54.2878 48.934 55.2416 48.5389 55.9449 47.8356C56.6481 47.1323 57.0432 46.1785 57.0432 45.184V15.184C57.0432 14.1894 56.6481 13.2356 55.9449 12.5323C55.2416 11.829 54.2878 11.434 53.2932 11.434ZM53.2932 45.184H8.29321V15.184H53.2932V45.184Z" fill="#374B73"/>
<path d="M34.5432 26.434H47.6682C48.1655 26.434 48.6424 26.2364 48.994 25.8848C49.3457 25.5332 49.5432 25.0562 49.5432 24.559C49.5432 24.0617 49.3457 23.5848 48.994 23.2331C48.6424 22.8815 48.1655 22.684 47.6682 22.684H34.5432C34.0459 22.684 33.569 22.8815 33.2174 23.2331C32.8658 23.5848 32.6682 24.0617 32.6682 24.559C32.6682 25.0562 32.8658 25.5332 33.2174 25.8848C33.569 26.2364 34.0459 26.434 34.5432 26.434Z" fill="#FFB4B4"/>
<path d="M34.5432 33.934H42.0432C42.5405 33.934 43.0174 33.7364 43.369 33.3848C43.7207 33.0332 43.9182 32.5562 43.9182 32.059C43.9182 31.5617 43.7207 31.0848 43.369 30.7331C43.0174 30.3815 42.5405 30.184 42.0432 30.184H34.5432C34.0459 30.184 33.569 30.3815 33.2174 30.7331C32.8658 31.0848 32.6682 31.5617 32.6682 32.059C32.6682 32.5562 32.8658 33.0332 33.2174 33.3848C33.569 33.7364 34.0459 33.934 34.5432 33.934Z" fill="#374B73"/>
<path d="M13.9182 39.559C14.4155 39.559 14.8924 39.3614 15.244 39.0098C15.5957 38.6582 15.7932 38.1812 15.7932 37.684C15.7932 37.159 17.4432 36.0152 18.1932 35.809H18.3995C19.1738 35.6427 19.8874 35.2665 20.462 34.7215C21.0787 34.8654 21.7202 34.8654 22.337 34.7215C22.9116 35.2665 23.6251 35.6427 24.3995 35.809H24.5307C25.337 36.109 26.9307 37.2527 27.0057 37.7777C27.0057 38.275 27.2033 38.7519 27.5549 39.1035C27.9065 39.4552 28.3834 39.6527 28.8807 39.6527C29.378 39.6527 29.8549 39.4552 30.2065 39.1035C30.5582 38.7519 30.7557 38.275 30.7557 37.7777C30.7557 34.459 26.312 32.4152 25.6557 32.1527C26.72 30.4448 27.2065 28.4397 27.0432 26.434C26.9706 24.9656 26.3546 23.5767 25.3151 22.5371C24.2755 21.4976 22.8866 20.8816 21.4182 20.809C19.9498 20.8816 18.5609 21.4976 17.5214 22.5371C16.4818 23.5767 15.8659 24.9656 15.7932 26.434C15.6502 28.4084 16.1359 30.3775 17.1807 32.059C16.487 32.3215 12.0432 34.3652 12.0432 37.684C12.0432 38.1812 12.2408 38.6582 12.5924 39.0098C12.944 39.3614 13.4209 39.559 13.9182 39.559ZM21.4182 24.559C21.8925 24.6241 22.3325 24.8426 22.6711 25.1811C23.0096 25.5196 23.2281 25.9596 23.2932 26.434C23.4184 27.2039 23.3634 27.9923 23.1324 28.7373C22.9014 29.4824 22.5008 30.1637 21.962 30.7277C21.8906 30.7991 21.8058 30.8558 21.7125 30.8945C21.6192 30.9331 21.5192 30.953 21.4182 30.953C21.3172 30.953 21.2172 30.9331 21.1239 30.8945C21.0306 30.8558 20.9459 30.7991 20.8745 30.7277C20.3344 30.1645 19.933 29.4833 19.7019 28.738C19.4708 27.9927 19.4165 27.2039 19.5432 26.434C19.6083 25.9596 19.8268 25.5196 20.1654 25.1811C20.5039 24.8426 20.9439 24.6241 21.4182 24.559Z" fill="#374B73"/>
</svg>
