<svg width="61" height="61" viewBox="0 0 61 61" fill="none" xmlns="http://www.w3.org/2000/svg">
<g clip-path="url(#clip0_249_143)">
<path d="M2.09253 55.3467L30.9565 4.08069L59.8205 55.3467H2.09253Z" fill="#FF877F"/>
<path d="M29.4565 16.9637V40.9637C29.4565 41.7927 30.1276 42.4637 30.9565 42.4637C31.7855 42.4637 32.4565 41.7927 32.4565 40.9637V16.9637C32.4565 16.1348 31.7855 15.4637 30.9565 15.4637C30.1276 15.4637 29.4565 16.1348 29.4565 16.9637Z" fill="#573A32"/>
<path d="M60.5546 52.3467L33.5546 5.58179C33.0186 4.65378 32.0286 4.08179 30.9566 4.08179C29.8846 4.08179 28.8946 4.65378 28.3586 5.58179L1.35855 52.3467C0.822539 53.2748 0.822539 54.4187 1.35855 55.3467C1.89457 56.2748 2.88457 56.8468 3.9566 56.8468H57.9566C59.0286 56.8468 60.0186 56.2748 60.5546 55.3467C61.0905 54.4187 61.0905 53.2748 60.5546 52.3467ZM3.9566 53.8467L30.9566 7.08179L57.9566 53.8467H3.9566Z" fill="#573A32"/>
<path d="M30.9565 51.4637C32.6134 51.4637 33.9565 50.1206 33.9565 48.4637C33.9565 46.8069 32.6134 45.4637 30.9565 45.4637C29.2997 45.4637 27.9565 46.8069 27.9565 48.4637C27.9565 50.1206 29.2997 51.4637 30.9565 51.4637Z" fill="#573A32"/>
</g>
<defs>
<clipPath id="clip0_249_143">
<rect width="60" height="60" fill="white" transform="translate(0.956543 0.463745)"/>
</clipPath>
</defs>
</svg>
